<svg viewBox="0 193.536 514.048 124.928" xmlns="http://www.w3.org/2000/svg" data-name="Слой 1" id="_Слой_1" style="max-height: 500px" width="514.048" height="124.928">
  <defs>
    <style>
      .cls-1 {
        fill: #1d1d1b;
      }
    </style>
  </defs>
  <g>
    <path d="M84.94,240.01c5.43,2.76,12.09.59,14.85-4.84,2.76-5.43.59-12.09-4.84-14.85-5.31-2.7-11.7,2.22-11.7,2.22-1.63,1.26-2.93.6-2.9-1.46,0,0,.14-7.93-5.13-10.61-5.22-2.65-11.49,2-11.49,2-1.65,1.22-3,.54-2.99-1.51,0,0,.03-7.77-5.16-10.41-5.43-2.76-12.09-.59-14.85,4.84-1.1,2.17-1.41,4.54-1.04,6.77l-.04-.03s0,3.3-1.84,4.17c-1.6.75-4.09-.19-4.09-.19-.47-.37-.98-.7-1.54-.99-4.45-2.26-9.89-.49-12.15,3.96-2.26,4.45-.49,9.89,3.96,12.15,4.45,2.26,9.89.49,12.15-3.96.56-1.09.86-2.24.95-3.39h0s.95-3.67,2.56-4.47c1.73-.87,4.97.29,4.97.29h0c.3.19.61.37.94.54,5.22,2.65,11.49-2,11.49-2,1.65-1.22,3-.54,2.99,1.51,0,0-.03,7.77,5.16,10.41,5.31,2.7,11.7-2.22,11.7-2.22,1.63-1.26,2.93-.6,2.9,1.46,0,0-.14,7.93,5.13,10.61Z" class="cls-1"/>
    <path d="M86.25,263.71c4.45,2.26,9.89.49,12.15-3.96,2.26-4.45.49-9.89-3.96-12.15-4.45-2.26-9.89-.49-12.15,3.96-2.26,4.45-.49,9.89,3.96,12.15Z" class="cls-1"/>
    <path d="M74.36,237.39c-4.45-2.26-9.89-.49-12.15,3.96-2.26,4.45-.49,9.89,3.96,12.15,4.45,2.26,9.89.49,12.15-3.96s.49-9.89-3.96-12.15Z" class="cls-1"/>
    <circle transform="translate(-190.26 241.12) rotate(-79.36)" r="9.04" cy="235.23" cx="50.19" class="cls-1"/>
    <path d="M74.68,290.22c-3.18-1.62-7.07-.35-8.69,2.83-1.62,3.18-.35,7.07,2.83,8.69,3.18,1.62,7.07.35,8.69-2.83,1.62-3.18.35-7.07-2.83-8.69Z" class="cls-1"/>
    <path d="M56.41,288.18c1.62-3.18.35-7.07-2.83-8.69-3.18-1.62-7.07-.35-8.69,2.83-1.62,3.18-.35,7.07,2.83,8.69,3.18,1.62,7.07.35,8.69-2.83Z" class="cls-1"/>
    <path d="M35.32,277.45c1.62-3.18.35-7.07-2.83-8.69-3.18-1.62-7.07-.35-8.69,2.83-1.62,3.18-.35,7.07,2.83,8.69,3.18,1.62,7.07.35,8.69-2.83Z" class="cls-1"/>
    <path d="M14.22,266.72c1.62-3.18.35-7.07-2.83-8.69-3.18-1.62-7.07-.35-8.69,2.83-1.62,3.18-.35,7.07,2.83,8.69,3.18,1.62,7.07.35,8.69-2.83Z" class="cls-1"/>
    <path d="M95.65,275.09c-3.98-2.02-8.84-.44-10.86,3.54-2.02,3.98-.44,8.84,3.54,10.86,3.98,2.02,8.84.44,10.86-3.54,2.02-3.98.44-8.84-3.54-10.86Z" class="cls-1"/>
    <path d="M74.67,264.42c-3.98-2.02-8.84-.44-10.86,3.54-2.02,3.98-.44,8.84,3.54,10.86,3.98,2.02,8.84.44,10.86-3.54,2.02-3.98.44-8.84-3.54-10.86Z" class="cls-1"/>
    <path d="M53.7,253.75c-3.98-2.02-8.84-.44-10.86,3.54-2.02,3.98-.44,8.84,3.54,10.86,3.98,2.02,8.84.44,10.86-3.54,2.02-3.98.44-8.84-3.54-10.86Z" class="cls-1"/>
    <path d="M32.72,243.08c-3.98-2.02-8.84-.44-10.86,3.54-2.02,3.98-.44,8.84,3.54,10.86,3.98,2.02,8.84.44,10.86-3.54,2.02-3.98.44-8.84-3.54-10.86Z" class="cls-1"/>
    <path d="M54.65,303.49c-2.39-1.21-5.3-.26-6.52,2.12-1.21,2.39-.26,5.3,2.12,6.52,2.39,1.21,5.3.26,6.52-2.12,1.21-2.39.26-5.3-2.12-6.52Z" class="cls-1"/>
    <path d="M33.56,292.75c-2.39-1.21-5.3-.26-6.52,2.12-1.21,2.39-.26,5.3,2.12,6.52,2.39,1.21,5.3.26,6.52-2.12,1.21-2.39.26-5.3-2.12-6.52Z" class="cls-1"/>
    <path d="M12.46,282.02c-2.39-1.21-5.3-.26-6.52,2.12-1.21,2.39-.26,5.3,2.12,6.52,2.39,1.21,5.3.26,6.52-2.12,1.21-2.39.26-5.3-2.12-6.52Z" class="cls-1"/>
    <path d="M11.74,232.4c-3.98-2.02-8.84-.44-10.86,3.54-2.02,3.98-.44,8.84,3.54,10.86,3.98,2.02,8.84.44,10.86-3.54,2.02-3.98.44-8.84-3.54-10.86Z" class="cls-1"/>
  </g>
  <g>
    <path d="M154.31,253.56c-2.44-1.41-5.74-2.74-9.88-4-4.52-1.48-7.79-2.65-9.83-3.5-2.04-.85-3.05-2.31-3.05-4.39s.98-3.33,2.94-4c1.96-.67,4.87-1,8.71-1,2.15,0,4.46.22,6.94.67,2.48.44,4.76,1.07,6.83,1.89v-10.1c-1.93-.67-4.26-1.22-6.99-1.67-2.74-.44-5.63-.67-8.66-.67-7.7,0-13.29,1.31-16.76,3.94-3.48,2.63-5.22,6.35-5.22,11.16,0,3.11.63,5.63,1.89,7.55,1.26,1.93,3.04,3.5,5.33,4.72,2.29,1.22,5,2.35,8.11,3.39,3.26,1.04,5.94,1.93,8.05,2.66,2.11.74,3.7,1.56,4.77,2.44,1.07.89,1.61,2.11,1.61,3.67,0,2.15-.89,3.59-2.66,4.33-1.78.74-4.74,1.11-8.88,1.11-2.74,0-5.63-.26-8.66-.78-3.04-.52-5.81-1.26-8.33-2.22v10.21c2.15.74,4.87,1.37,8.16,1.89,3.29.52,6.75.78,10.38.78,7.18,0,12.66-1.28,16.43-3.83,3.78-2.55,5.66-6.42,5.66-11.6,0-3.11-.54-5.64-1.61-7.61-1.07-1.96-2.83-3.64-5.27-5.05Z" class="cls-1"/>
    <path d="M259.67,226.81c-4,0-7.64.65-10.94,1.94-3.29,1.3-6.13,2.87-8.49,4.72l-.55-5.55h-11.1v52.63h12.1v-38.53c1.78-1.78,3.98-3.22,6.61-4.33,2.63-1.11,5.31-1.66,8.05-1.66,4.59,0,7.72.82,9.38,2.44,1.67,1.63,2.5,4.48,2.5,8.55v33.53h11.99v-34.08c0-6.73-1.56-11.69-4.66-14.88-3.11-3.18-8.07-4.77-14.88-4.77Z" class="cls-1"/>
    <path d="M308.05,270.61c-1.41-1.22-2.11-3.35-2.11-6.38v-26.87h13.21l.78-9.44h-13.99v-15.77l-11.99,3.66v12.1h-7.77v9.44h7.77v27.54c0,5.18,1.39,9.27,4.16,12.27,2.78,3,6.98,4.5,12.6,4.5,4.14,0,7.66-.59,10.55-1.78v-8.55c-2.22.74-4.33,1.11-6.33,1.11-3.18,0-5.48-.61-6.88-1.83Z" class="cls-1"/>
    <path d="M510.39,258.62c-1.07-1.96-2.83-3.64-5.27-5.05-2.44-1.41-5.74-2.74-9.88-4-4.52-1.48-7.79-2.65-9.83-3.5-2.04-.85-3.05-2.31-3.05-4.39s.98-3.33,2.94-4c1.96-.67,4.87-1,8.71-1,2.15,0,4.46.22,6.94.67,2.48.44,4.76,1.07,6.83,1.89v-10.1c-1.93-.67-4.26-1.22-6.99-1.67-2.74-.44-5.63-.67-8.66-.67-7.7,0-13.29,1.31-16.76,3.94-3.48,2.63-5.22,6.35-5.22,11.16,0,3.11.63,5.63,1.89,7.55,1.26,1.93,3.04,3.5,5.33,4.72,2.29,1.22,5,2.35,8.11,3.39,3.26,1.04,5.94,1.93,8.05,2.66,2.11.74,3.7,1.56,4.77,2.44,1.07.89,1.61,2.11,1.61,3.67,0,2.15-.89,3.59-2.66,4.33-1.78.74-4.74,1.11-8.88,1.11-2.74,0-5.63-.26-8.66-.78-3.04-.52-5.81-1.26-8.33-2.22v10.21c2.15.74,4.87,1.37,8.16,1.89,3.29.52,6.75.78,10.38.78,7.18,0,12.66-1.28,16.43-3.83,3.78-2.55,5.66-6.42,5.66-11.6,0-3.11-.54-5.64-1.61-7.61Z" class="cls-1"/>
    <path d="M222.37,227.92h-12.43l-1.97,4.49h0l-13.62,31.12c-.83,1.91-2.19,1.9-3.02,0l-13.43-31.1h0l-1.95-4.51h-12.54l1.59,3.44s0,0,0,0l20.85,45.08c.87,1.89.91,5,.07,6.91h0c-.84,1.92-3.22,3.48-5.31,3.48h-2.01c-2.08,0-4.47,1.56-5.31,3.47l-5.77,13.18c-.84,1.91.19,3.47,2.27,3.47h6.2c2.08,0,4.46-1.56,5.29-3.48l5.33-12.34c.83-1.91,3.21-3.48,5.29-3.48h.5c2.08,0,4.52-1.54,5.42-3.42l1.51-3.25c.89-1.88,2.29-4.99,3.11-6.9l18.42-42.68s0,0,0,0l1.5-3.48Z" class="cls-1"/>
    <path d="M400.67,271.11c-.74-.74-1.11-2.15-1.11-4.22v-54.74l-12.1,3.89v51.96c0,4.89,1.11,8.38,3.33,10.49,2.22,2.11,5.48,3.16,9.77,3.16,1.7,0,3.2-.09,4.5-.28,1.29-.19,2.65-.54,4.05-1.05v-8.77c-1.63.44-3.33.67-5.11.67-1.48,0-2.59-.37-3.33-1.11Z" class="cls-1"/>
    <path d="M376,249.23c0-6.59-2.02-11.97-6.05-16.15-4.04-4.18-10.05-6.27-18.04-6.27-8.74,0-15.25,2.44-19.54,7.33-4.29,4.88-6.44,11.55-6.44,19.98,0,9.33,2.51,16.25,7.55,20.76,5.03,4.52,12.14,6.77,21.32,6.77,3.48,0,6.75-.26,9.83-.78,3.07-.52,5.79-1.29,8.16-2.33v-8.88c-2.07.82-4.52,1.48-7.33,2-2.81.52-5.55.78-8.22.78-6.37,0-11.1-.96-14.21-2.89-3.11-1.92-4.96-5.44-5.55-10.55h38.53v-9.77ZM365.34,251.12h-27.87c0-5.25,1.05-9.1,3.16-11.55,2.11-2.44,5.98-3.66,11.6-3.66,4.74,0,8.11,1.02,10.1,3.05,2,2.04,3,4.87,3,8.49v3.66Z" class="cls-1"/>
    <path d="M462.56,249.23c0-6.59-2.02-11.97-6.05-16.15-4.04-4.18-10.05-6.27-18.04-6.27-8.74,0-15.25,2.44-19.54,7.33-4.29,4.88-6.44,11.55-6.44,19.98,0,9.33,2.51,16.25,7.55,20.76,5.03,4.52,12.14,6.77,21.32,6.77,3.48,0,6.75-.26,9.83-.78,3.07-.52,5.79-1.29,8.16-2.33v-8.88c-2.07.82-4.52,1.48-7.33,2-2.81.52-5.55.78-8.22.78-6.37,0-11.1-.96-14.21-2.89-3.11-1.92-4.96-5.44-5.55-10.55h38.53v-9.77ZM451.9,251.12h-27.87c0-5.25,1.05-9.1,3.16-11.55,2.11-2.44,5.98-3.66,11.6-3.66,4.74,0,8.11,1.02,10.1,3.05,2,2.04,3,4.87,3,8.49v3.66Z" class="cls-1"/>
  </g>
</svg>